<?xml version="1.0" encoding="utf-8"?>
<!-- Generated by Mocodo 4.3.3 -->
<svg width="768" height="639" viewBox="0 0 768 639" xmlns="http://www.w3.org/2000/svg">
<rect x="0" y="0" width="768" height="639" fill="#FFFFFF" stroke="none" stroke-width="0"/>

<!-- Association FOURNIT -->
<g>
	<line x1="79" y1="44" x2="221" y2="44" stroke="#000000" stroke-width="1"/>
	<line x1="221" y1="184" x2="221" y2="44" stroke="#000000" stroke-width="1"/>
	<g>
		<path d="M237 18 a14 14 90 0 1 14 14 V44 h-60 V32 a14 14 90 0 1 14 -14" fill="#FFFFFF" stroke="#FFFFFF" stroke-width="0"/>
		<path d="M251 44 v12 a14 14 90 0 1 -14 14 H205 a14 14 90 0 1 -14 -14 V44 H60" fill="#FFFFFF" stroke="#FFFFFF" stroke-width="0"/>
		<rect x="191" y="18" width="60" height="52" fill="none" rx="14" stroke="#000000" stroke-width="1.5"/>
		<line x1="191" y1="44" x2="251" y2="44" stroke="#000000" stroke-width="1"/>
		<text x="199" y="36.6" fill="#000000" font-family="Trebuchet MS" font-size="14">fournit</text>
	</g>
	<text x="154" y="61" fill="#000000" font-family="Verdana" font-size="12">0,N</text>
	<text x="226" y="96" fill="#000000" font-family="Verdana" font-size="12">0,1</text>
</g>

<!-- Association POSSEDE -->
<g>
	<line x1="79" y1="315" x2="79" y2="184" stroke="#000000" stroke-width="1"/>
	<line x1="221" y1="184" x2="79" y2="184" stroke="#000000" stroke-width="1"/>
	<g>
		<path d="M98 158 a14 14 90 0 1 14 14 V184 h-66 V172 a14 14 90 0 1 14 -14" fill="#FFFFFF" stroke="#FFFFFF" stroke-width="0"/>
		<path d="M112 184 v12 a14 14 90 0 1 -14 14 H60 a14 14 90 0 1 -14 -14 V184 H66" fill="#FFFFFF" stroke="#FFFFFF" stroke-width="0"/>
		<rect x="46" y="158" width="66" height="52" fill="none" rx="14" stroke="#000000" stroke-width="1.5"/>
		<line x1="46" y1="184" x2="112" y2="184" stroke="#000000" stroke-width="1"/>
		<text x="53" y="176.6" fill="#000000" font-family="Trebuchet MS" font-size="14">possede</text>
	</g>
	<text x="84" y="227" fill="#000000" font-family="Verdana" font-size="12">0,N</text>
	<text x="146" y="201" fill="#000000" font-family="Verdana" font-size="12">1,1</text>
</g>

<!-- Association STOCK_DE -->
<g>
	<line x1="221" y1="184" x2="346" y2="184" stroke="#000000" stroke-width="1"/>
	<line x1="477" y1="184" x2="346" y2="184" stroke="#000000" stroke-width="1"/>
	<g>
		<path d="M368 158 a14 14 90 0 1 14 14 V184 h-72 V172 a14 14 90 0 1 14 -14" fill="#FFFFFF" stroke="#FFFFFF" stroke-width="0"/>
		<path d="M382 184 v12 a14 14 90 0 1 -14 14 H324 a14 14 90 0 1 -14 -14 V184 H72" fill="#FFFFFF" stroke="#FFFFFF" stroke-width="0"/>
		<rect x="310" y="158" width="72" height="52" fill="none" rx="14" stroke="#000000" stroke-width="1.5"/>
		<line x1="310" y1="184" x2="382" y2="184" stroke="#000000" stroke-width="1"/>
		<text x="317" y="176.6" fill="#000000" font-family="Trebuchet MS" font-size="14">stock_de</text>
	</g>
	<text x="275" y="201" fill="#000000" font-family="Verdana" font-size="12">0,N</text>
	<text x="414" y="201" fill="#000000" font-family="Verdana" font-size="12">1,1</text>
</g>

<!-- Association CONCERNE -->
<g>
	<line x1="221" y1="184" x2="221" y2="315" stroke="#000000" stroke-width="1"/>
	<line x1="221" y1="473" x2="221" y2="315" stroke="#000000" stroke-width="1"/>
	<g>
		<path d="M244 289 a14 14 90 0 1 14 14 V315 h-74 V303 a14 14 90 0 1 14 -14" fill="#FFFFFF" stroke="#FFFFFF" stroke-width="0"/>
		<path d="M258 315 v12 a14 14 90 0 1 -14 14 H198 a14 14 90 0 1 -14 -14 V315 H74" fill="#FFFFFF" stroke="#FFFFFF" stroke-width="0"/>
		<rect x="184" y="289" width="74" height="52" fill="none" rx="14" stroke="#000000" stroke-width="1.5"/>
		<line x1="184" y1="315" x2="258" y2="315" stroke="#000000" stroke-width="1"/>
		<text x="191" y="307.6" fill="#000000" font-family="Trebuchet MS" font-size="14">concerne</text>
	</g>
	<text x="226" y="281" fill="#000000" font-family="Verdana" font-size="12">0,N</text>
	<text x="226" y="412" fill="#000000" font-family="Verdana" font-size="12">1,1</text>
</g>

<!-- Association LOCALISE_DANS -->
<g>
	<line x1="477" y1="473" x2="477" y2="315" stroke="#000000" stroke-width="1"/>
	<line x1="477" y1="184" x2="477" y2="315" stroke="#000000" stroke-width="1"/>
	<g>
		<path d="M513 289 a14 14 90 0 1 14 14 V315 h-100 V303 a14 14 90 0 1 14 -14" fill="#FFFFFF" stroke="#FFFFFF" stroke-width="0"/>
		<path d="M527 315 v12 a14 14 90 0 1 -14 14 H441 a14 14 90 0 1 -14 -14 V315 H100" fill="#FFFFFF" stroke="#FFFFFF" stroke-width="0"/>
		<rect x="427" y="289" width="100" height="52" fill="none" rx="14" stroke="#000000" stroke-width="1.5"/>
		<line x1="427" y1="315" x2="527" y2="315" stroke="#000000" stroke-width="1"/>
		<text x="434" y="307.6" fill="#000000" font-family="Trebuchet MS" font-size="14">localise_dans</text>
	</g>
	<text x="482" y="394" fill="#000000" font-family="Verdana" font-size="12">0,N</text>
	<text x="482" y="245" fill="#000000" font-family="Verdana" font-size="12">1,1</text>
</g>

<!-- Association REALISE_POUR -->
<g>
	<line x1="79" y1="315" x2="79" y2="473" stroke="#000000" stroke-width="1"/>
	<line x1="221" y1="473" x2="79" y2="473" stroke="#000000" stroke-width="1"/>
	<g>
		<path d="M113 447 a14 14 90 0 1 14 14 V473 h-96 V461 a14 14 90 0 1 14 -14" fill="#FFFFFF" stroke="#FFFFFF" stroke-width="0"/>
		<path d="M127 473 v12 a14 14 90 0 1 -14 14 H45 a14 14 90 0 1 -14 -14 V473 H96" fill="#FFFFFF" stroke="#FFFFFF" stroke-width="0"/>
		<rect x="31" y="447" width="96" height="52" fill="none" rx="14" stroke="#000000" stroke-width="1.5"/>
		<line x1="31" y1="473" x2="127" y2="473" stroke="#000000" stroke-width="1"/>
		<text x="39" y="465.6" fill="#000000" font-family="Trebuchet MS" font-size="14">realise_pour</text>
	</g>
	<text x="84" y="412" fill="#000000" font-family="Verdana" font-size="12">0,N</text>
	<text x="133" y="490" fill="#000000" font-family="Verdana" font-size="12">1,1</text>
</g>

<!-- Association ARRIVEE -->
<g>
	<line x1="477" y1="473" x2="346" y2="473" stroke="#000000" stroke-width="1"/>
	<line x1="221" y1="473" x2="346" y2="473" stroke="#000000" stroke-width="1"/>
	<g>
		<path d="M363 447 a14 14 90 0 1 14 14 V473 h-62 V461 a14 14 90 0 1 14 -14" fill="#FFFFFF" stroke="#FFFFFF" stroke-width="0"/>
		<path d="M377 473 v12 a14 14 90 0 1 -14 14 H329 a14 14 90 0 1 -14 -14 V473 H62" fill="#FFFFFF" stroke="#FFFFFF" stroke-width="0"/>
		<rect x="315" y="447" width="62" height="52" fill="none" rx="14" stroke="#000000" stroke-width="1.5"/>
		<line x1="315" y1="473" x2="377" y2="473" stroke="#000000" stroke-width="1"/>
		<text x="323" y="465.6" fill="#000000" font-family="Trebuchet MS" font-size="14">arrivee</text>
	</g>
	<text x="382" y="465" fill="#000000" font-family="Verdana" font-size="12">0,N</text>
	<text x="288" y="465" fill="#000000" font-family="Verdana" font-size="12">0,1</text>
</g>

<!-- Association CONTIENT -->
<g>
	<line x1="719" y1="473" x2="612" y2="473" stroke="#000000" stroke-width="1"/>
	<line x1="477" y1="473" x2="612" y2="473" stroke="#000000" stroke-width="1"/>
	<g>
		<path d="M633 447 a14 14 90 0 1 14 14 V473 h-70 V461 a14 14 90 0 1 14 -14" fill="#FFFFFF" stroke="#FFFFFF" stroke-width="0"/>
		<path d="M647 473 v12 a14 14 90 0 1 -14 14 H591 a14 14 90 0 1 -14 -14 V473 H70" fill="#FFFFFF" stroke="#FFFFFF" stroke-width="0"/>
		<rect x="577" y="447" width="70" height="52" fill="none" rx="14" stroke="#000000" stroke-width="1.5"/>
		<line x1="577" y1="473" x2="647" y2="473" stroke="#000000" stroke-width="1"/>
		<text x="585" y="465.6" fill="#000000" font-family="Trebuchet MS" font-size="14">contient</text>
	</g>
	<text x="652" y="490" fill="#000000" font-family="Verdana" font-size="12">1,N</text>
	<text x="550" y="490" fill="#000000" font-family="Verdana" font-size="12">1,1</text>
</g>

<!-- Association EFFECTUE -->
<g>
	<line x1="79" y1="577" x2="221" y2="577" stroke="#000000" stroke-width="1"/>
	<line x1="221" y1="473" x2="221" y2="577" stroke="#000000" stroke-width="1"/>
	<g>
		<path d="M242 551 a14 14 90 0 1 14 14 V577 h-70 V565 a14 14 90 0 1 14 -14" fill="#FFFFFF" stroke="#FFFFFF" stroke-width="0"/>
		<path d="M256 577 v12 a14 14 90 0 1 -14 14 H200 a14 14 90 0 1 -14 -14 V577 H70" fill="#FFFFFF" stroke="#FFFFFF" stroke-width="0"/>
		<rect x="186" y="551" width="70" height="52" fill="none" rx="14" stroke="#000000" stroke-width="1.5"/>
		<line x1="186" y1="577" x2="256" y2="577" stroke="#000000" stroke-width="1"/>
		<text x="193" y="569.6" fill="#000000" font-family="Trebuchet MS" font-size="14">effectue</text>
	</g>
	<text x="131" y="594" fill="#000000" font-family="Verdana" font-size="12">0,N</text>
	<text x="195" y="543" fill="#000000" font-family="Verdana" font-size="12">1,1</text>
</g>

<!-- Association DEPART -->
<g>
	<line x1="477" y1="473" x2="346" y2="577" stroke="#000000" stroke-width="1"/>
	<line x1="221" y1="473" x2="346" y2="577" stroke="#000000" stroke-width="1"/>
	<g>
		<path d="M361 551 a14 14 90 0 1 14 14 V577 h-58 V565 a14 14 90 0 1 14 -14" fill="#FFFFFF" stroke="#FFFFFF" stroke-width="0"/>
		<path d="M375 577 v12 a14 14 90 0 1 -14 14 H331 a14 14 90 0 1 -14 -14 V577 H58" fill="#FFFFFF" stroke="#FFFFFF" stroke-width="0"/>
		<rect x="317" y="551" width="58" height="52" fill="none" rx="14" stroke="#000000" stroke-width="1.5"/>
		<line x1="317" y1="577" x2="375" y2="577" stroke="#000000" stroke-width="1"/>
		<text x="324" y="569.6" fill="#000000" font-family="Trebuchet MS" font-size="14">depart</text>
	</g>
	<text x="382" y="524.91" fill="#000000" font-family="Verdana" font-size="12">0,N</text>
	<text x="288" y="522.74" fill="#000000" font-family="Verdana" font-size="12">0,1</text>
</g>

<!-- Entity FOURNISSEUR -->
<g>
	<g>
		<rect x="9" y="9" width="140" height="26" fill="#FFFFFF" stroke="none" stroke-width="0" opacity="1"/>
		<rect x="9" y="35" width="140" height="44" fill="#FFFFFF" stroke="none" stroke-width="0" opacity="1"/>
		<rect x="9" y="9" width="140" height="70" fill="none" stroke="#000000" stroke-width="1.5" opacity="1"/>
		<line x1="9" y1="35" x2="149" y2="35" stroke="#000000" stroke-width="1"/>
	</g>
	<text x="35" y="27.6" fill="#000000" font-family="Trebuchet MS" font-size="14">FOURNISSEUR</text>
	<text x="14" y="53.6" fill="#000000" font-family="Trebuchet MS" font-size="14">CODE_FOURNISSEUR</text>
	<line x1="14" y1="56" x2="144" y2="56" stroke="#000000" stroke-width="1"/>
	<text x="14" y="71.6" fill="#000000" font-family="Trebuchet MS" font-size="14">raison_sociale</text>
</g>

<!-- Entity ARTICLE -->
<g>
	<g>
		<rect x="172" y="104" width="98" height="26" fill="#FFFFFF" stroke="none" stroke-width="0" opacity="1"/>
		<rect x="172" y="130" width="98" height="134" fill="#FFFFFF" stroke="none" stroke-width="0" opacity="1"/>
		<rect x="172" y="104" width="98" height="160" fill="none" stroke="#000000" stroke-width="1.5" opacity="1"/>
		<line x1="172" y1="130" x2="270" y2="130" stroke="#000000" stroke-width="1"/>
	</g>
	<text x="194" y="122.6" fill="#000000" font-family="Trebuchet MS" font-size="14">ARTICLE</text>
	<text x="177" y="148.6" fill="#000000" font-family="Trebuchet MS" font-size="14">CODE_CLIENT</text>
	<line x1="177" y1="151" x2="265" y2="151" stroke="#000000" stroke-width="1"/>
	<text x="177" y="166.6" fill="#000000" font-family="Trebuchet MS" font-size="14">REFERENCE</text>
	<text x="177" y="184.6" fill="#000000" font-family="Trebuchet MS" font-size="14">libelle</text>
	<text x="177" y="202.6" fill="#000000" font-family="Trebuchet MS" font-size="14">poids</text>
	<text x="177" y="220.6" fill="#000000" font-family="Trebuchet MS" font-size="14">longueur</text>
	<text x="177" y="238.6" fill="#000000" font-family="Trebuchet MS" font-size="14">largeur</text>
	<text x="177" y="256.6" fill="#000000" font-family="Trebuchet MS" font-size="14">hauteur</text>
</g>

<!-- Entity STOCK -->
<g>
	<g>
		<rect x="440" y="140" width="74" height="26" fill="#FFFFFF" stroke="none" stroke-width="0" opacity="1"/>
		<rect x="440" y="166" width="74" height="62" fill="#FFFFFF" stroke="none" stroke-width="0" opacity="1"/>
		<rect x="440" y="140" width="74" height="88" fill="none" stroke="#000000" stroke-width="1.5" opacity="1"/>
		<line x1="440" y1="166" x2="514" y2="166" stroke="#000000" stroke-width="1"/>
	</g>
	<text x="456" y="158.6" fill="#000000" font-family="Trebuchet MS" font-size="14">STOCK</text>
	<text x="445" y="184.6" fill="#000000" font-family="Trebuchet MS" font-size="14">ID_STOCK</text>
	<line x1="445" y1="187" x2="508" y2="187" stroke="#000000" stroke-width="1"/>
	<text x="445" y="202.6" fill="#000000" font-family="Trebuchet MS" font-size="14">quantite</text>
	<text x="445" y="220.6" fill="#000000" font-family="Trebuchet MS" font-size="14">date_maj</text>
</g>

<!-- Entity CLIENT -->
<g>
	<g>
		<rect x="27" y="235" width="104" height="26" fill="#FFFFFF" stroke="none" stroke-width="0" opacity="1"/>
		<rect x="27" y="261" width="104" height="134" fill="#FFFFFF" stroke="none" stroke-width="0" opacity="1"/>
		<rect x="27" y="235" width="104" height="160" fill="none" stroke="#000000" stroke-width="1.5" opacity="1"/>
		<line x1="27" y1="261" x2="131" y2="261" stroke="#000000" stroke-width="1"/>
	</g>
	<text x="56" y="253.6" fill="#000000" font-family="Trebuchet MS" font-size="14">CLIENT</text>
	<text x="32" y="279.6" fill="#000000" font-family="Trebuchet MS" font-size="14">CODE_CLIENT</text>
	<line x1="32" y1="282" x2="120" y2="282" stroke="#000000" stroke-width="1"/>
	<text x="32" y="297.6" fill="#000000" font-family="Trebuchet MS" font-size="14">raison_sociale</text>
	<text x="32" y="315.6" fill="#000000" font-family="Trebuchet MS" font-size="14">siret</text>
	<text x="32" y="333.6" fill="#000000" font-family="Trebuchet MS" font-size="14">contact_nom</text>
	<text x="32" y="351.6" fill="#000000" font-family="Trebuchet MS" font-size="14">contact_email</text>
	<text x="32" y="369.6" fill="#000000" font-family="Trebuchet MS" font-size="14">adresse</text>
	<text x="32" y="387.6" fill="#000000" font-family="Trebuchet MS" font-size="14">status</text>
</g>

<!-- Entity MOUVEMENT -->
<g>
	<g>
		<rect x="159" y="420" width="124" height="26" fill="#FFFFFF" stroke="none" stroke-width="0" opacity="1"/>
		<rect x="159" y="446" width="124" height="80" fill="#FFFFFF" stroke="none" stroke-width="0" opacity="1"/>
		<rect x="159" y="420" width="124" height="106" fill="none" stroke="#000000" stroke-width="1.5" opacity="1"/>
		<line x1="159" y1="446" x2="283" y2="446" stroke="#000000" stroke-width="1"/>
	</g>
	<text x="180" y="438.6" fill="#000000" font-family="Trebuchet MS" font-size="14">MOUVEMENT</text>
	<text x="164" y="464.6" fill="#000000" font-family="Trebuchet MS" font-size="14">NUMERO_MVT</text>
	<line x1="164" y1="467" x2="254" y2="467" stroke="#000000" stroke-width="1"/>
	<text x="164" y="482.6" fill="#000000" font-family="Trebuchet MS" font-size="14">type_mouvement</text>
	<text x="164" y="500.6" fill="#000000" font-family="Trebuchet MS" font-size="14">quantite</text>
	<text x="164" y="518.6" fill="#000000" font-family="Trebuchet MS" font-size="14">date_mouvement</text>
</g>

<!-- Entity EMPLACEMENT -->
<g>
	<g>
		<rect x="409" y="402" width="136" height="26" fill="#FFFFFF" stroke="none" stroke-width="0" opacity="1"/>
		<rect x="409" y="428" width="136" height="116" fill="#FFFFFF" stroke="none" stroke-width="0" opacity="1"/>
		<rect x="409" y="402" width="136" height="142" fill="none" stroke="#000000" stroke-width="1.5" opacity="1"/>
		<line x1="409" y1="428" x2="545" y2="428" stroke="#000000" stroke-width="1"/>
	</g>
	<text x="430" y="420.6" fill="#000000" font-family="Trebuchet MS" font-size="14">EMPLACEMENT</text>
	<text x="414" y="446.6" fill="#000000" font-family="Trebuchet MS" font-size="14">CODE</text>
	<line x1="414" y1="449" x2="450" y2="449" stroke="#000000" stroke-width="1"/>
	<text x="414" y="464.6" fill="#000000" font-family="Trebuchet MS" font-size="14">zone</text>
	<text x="414" y="482.6" fill="#000000" font-family="Trebuchet MS" font-size="14">allee</text>
	<text x="414" y="500.6" fill="#000000" font-family="Trebuchet MS" font-size="14">etagere</text>
	<text x="414" y="518.6" fill="#000000" font-family="Trebuchet MS" font-size="14">niveau</text>
	<text x="414" y="536.6" fill="#000000" font-family="Trebuchet MS" font-size="14">type_emplacement</text>
</g>

<!-- Entity SITE -->
<g>
	<g>
		<rect x="679" y="429" width="80" height="26" fill="#FFFFFF" stroke="none" stroke-width="0" opacity="1"/>
		<rect x="679" y="455" width="80" height="62" fill="#FFFFFF" stroke="none" stroke-width="0" opacity="1"/>
		<rect x="679" y="429" width="80" height="88" fill="none" stroke="#000000" stroke-width="1.5" opacity="1"/>
		<line x1="679" y1="455" x2="759" y2="455" stroke="#000000" stroke-width="1"/>
	</g>
	<text x="705" y="447.6" fill="#000000" font-family="Trebuchet MS" font-size="14">SITE</text>
	<text x="684" y="473.6" fill="#000000" font-family="Trebuchet MS" font-size="14">CODE_SITE</text>
	<line x1="684" y1="476" x2="754" y2="476" stroke="#000000" stroke-width="1"/>
	<text x="684" y="491.6" fill="#000000" font-family="Trebuchet MS" font-size="14">nom</text>
	<text x="684" y="509.6" fill="#000000" font-family="Trebuchet MS" font-size="14">adresse</text>
</g>

<!-- Entity UTILISATEUR -->
<g>
	<g>
		<rect x="32" y="524" width="94" height="26" fill="#FFFFFF" stroke="none" stroke-width="0" opacity="1"/>
		<rect x="32" y="550" width="94" height="80" fill="#FFFFFF" stroke="none" stroke-width="0" opacity="1"/>
		<rect x="32" y="524" width="94" height="106" fill="none" stroke="#000000" stroke-width="1.5" opacity="1"/>
		<line x1="32" y1="550" x2="126" y2="550" stroke="#000000" stroke-width="1"/>
	</g>
	<text x="38" y="542.6" fill="#000000" font-family="Trebuchet MS" font-size="14">UTILISATEUR</text>
	<text x="37" y="568.6" fill="#000000" font-family="Trebuchet MS" font-size="14">LOGIN</text>
	<line x1="37" y1="571" x2="78" y2="571" stroke="#000000" stroke-width="1"/>
	<text x="37" y="586.6" fill="#000000" font-family="Trebuchet MS" font-size="14">nom</text>
	<text x="37" y="604.6" fill="#000000" font-family="Trebuchet MS" font-size="14">prenom</text>
	<text x="37" y="622.6" fill="#000000" font-family="Trebuchet MS" font-size="14">role</text>
</g>
</svg>