<?xml version="1.0" encoding="utf-8"?>
<!-- Generated by Mocodo 4.3.3 -->
<svg width="760" height="562" viewBox="0 0 760 562" xmlns="http://www.w3.org/2000/svg">
<rect x="0" y="0" width="760" height="562" fill="#FFFFFF" stroke="none" stroke-width="0"/>

<!-- Association PORTE -->
<g>
	<line x1="184" y1="247" x2="184" y2="71" stroke="#000000" stroke-width="1"/>
	<line x1="315" y1="71" x2="184" y2="71" stroke="#000000" stroke-width="1"/>
	<g>
		<path d="M195 45 a14 14 90 0 1 14 14 V71 h-50 V59 a14 14 90 0 1 14 -14" fill="#FFFFFF" stroke="#FFFFFF" stroke-width="0"/>
		<path d="M209 71 v12 a14 14 90 0 1 -14 14 H173 a14 14 90 0 1 -14 -14 V71 H50" fill="#FFFFFF" stroke="#FFFFFF" stroke-width="0"/>
		<rect x="159" y="45" width="50" height="52" fill="none" rx="14" stroke="#000000" stroke-width="1.5"/>
		<line x1="159" y1="71" x2="209" y2="71" stroke="#000000" stroke-width="1"/>
		<text x="166" y="63.6" fill="#000000" font-family="Trebuchet MS" font-size="14">porte</text>
	</g>
	<text x="189" y="168" fill="#000000" font-family="Verdana" font-size="12">0,N</text>
	<text x="215" y="88" fill="#000000" font-family="Verdana" font-size="12">1,1</text>
</g>

<!-- Association STOCKE_DANS -->
<g>
	<line x1="468" y1="247" x2="468" y2="71" stroke="#000000" stroke-width="1"/>
	<line x1="315" y1="71" x2="468" y2="71" stroke="#000000" stroke-width="1"/>
	<g>
		<path d="M501 45 a14 14 90 0 1 14 14 V71 h-94 V59 a14 14 90 0 1 14 -14" fill="#FFFFFF" stroke="#FFFFFF" stroke-width="0"/>
		<path d="M515 71 v12 a14 14 90 0 1 -14 14 H435 a14 14 90 0 1 -14 -14 V71 H94" fill="#FFFFFF" stroke="#FFFFFF" stroke-width="0"/>
		<rect x="421" y="45" width="94" height="52" fill="none" rx="14" stroke="#000000" stroke-width="1.5"/>
		<line x1="421" y1="71" x2="515" y2="71" stroke="#000000" stroke-width="1"/>
		<text x="429" y="63.6" fill="#000000" font-family="Trebuchet MS" font-size="14">stocke_dans</text>
	</g>
	<text x="473" y="150" fill="#000000" font-family="Verdana" font-size="12">0,N</text>
	<text x="394" y="88" fill="#000000" font-family="Verdana" font-size="12">1,1</text>
</g>

<!-- Association CONTIENT -->
<g>
	<line x1="49" y1="396" x2="49" y2="247" stroke="#000000" stroke-width="1"/>
	<line x1="184" y1="247" x2="49" y2="247" stroke="#000000" stroke-width="1"/>
	<g>
		<path d="M70 221 a14 14 90 0 1 14 14 V247 h-70 V235 a14 14 90 0 1 14 -14" fill="#FFFFFF" stroke="#FFFFFF" stroke-width="0"/>
		<path d="M84 247 v12 a14 14 90 0 1 -14 14 H28 a14 14 90 0 1 -14 -14 V247 H70" fill="#FFFFFF" stroke="#FFFFFF" stroke-width="0"/>
		<rect x="14" y="221" width="70" height="52" fill="none" rx="14" stroke="#000000" stroke-width="1.5"/>
		<line x1="14" y1="247" x2="84" y2="247" stroke="#000000" stroke-width="1"/>
		<text x="22" y="239.6" fill="#000000" font-family="Trebuchet MS" font-size="14">contient</text>
	</g>
	<text x="54" y="344" fill="#000000" font-family="Verdana" font-size="12">1,N</text>
	<text x="90" y="264" fill="#000000" font-family="Verdana" font-size="12">1,1</text>
</g>

<!-- Association ARRIVEE -->
<g>
	<line x1="184" y1="247" x2="315" y2="247" stroke="#000000" stroke-width="1"/>
	<line x1="315" y1="396" x2="315" y2="247" stroke="#000000" stroke-width="1"/>
	<g>
		<path d="M332 221 a14 14 90 0 1 14 14 V247 h-62 V235 a14 14 90 0 1 14 -14" fill="#FFFFFF" stroke="#FFFFFF" stroke-width="0"/>
		<path d="M346 247 v12 a14 14 90 0 1 -14 14 H298 a14 14 90 0 1 -14 -14 V247 H62" fill="#FFFFFF" stroke="#FFFFFF" stroke-width="0"/>
		<rect x="284" y="221" width="62" height="52" fill="none" rx="14" stroke="#000000" stroke-width="1.5"/>
		<line x1="284" y1="247" x2="346" y2="247" stroke="#000000" stroke-width="1"/>
		<text x="292" y="239.6" fill="#000000" font-family="Trebuchet MS" font-size="14">arrivee</text>
	</g>
	<text x="257" y="264" fill="#000000" font-family="Verdana" font-size="12">0,N</text>
	<text x="320" y="335" fill="#000000" font-family="Verdana" font-size="12">0,1</text>
</g>

<!-- Association POSSEDE -->
<g>
	<line x1="699" y1="247" x2="582" y2="247" stroke="#000000" stroke-width="1"/>
	<line x1="468" y1="247" x2="582" y2="247" stroke="#000000" stroke-width="1"/>
	<g>
		<path d="M601 221 a14 14 90 0 1 14 14 V247 h-66 V235 a14 14 90 0 1 14 -14" fill="#FFFFFF" stroke="#FFFFFF" stroke-width="0"/>
		<path d="M615 247 v12 a14 14 90 0 1 -14 14 H563 a14 14 90 0 1 -14 -14 V247 H66" fill="#FFFFFF" stroke="#FFFFFF" stroke-width="0"/>
		<rect x="549" y="221" width="66" height="52" fill="none" rx="14" stroke="#000000" stroke-width="1.5"/>
		<line x1="549" y1="247" x2="615" y2="247" stroke="#000000" stroke-width="1"/>
		<text x="556" y="239.6" fill="#000000" font-family="Trebuchet MS" font-size="14">possede</text>
	</g>
	<text x="620" y="264" fill="#000000" font-family="Verdana" font-size="12">0,N</text>
	<text x="522" y="264" fill="#000000" font-family="Verdana" font-size="12">1,1</text>
</g>

<!-- Association DEPART -->
<g>
	<line x1="184" y1="247" x2="184" y2="396" stroke="#000000" stroke-width="1"/>
	<line x1="315" y1="396" x2="184" y2="396" stroke="#000000" stroke-width="1"/>
	<g>
		<path d="M199 370 a14 14 90 0 1 14 14 V396 h-58 V384 a14 14 90 0 1 14 -14" fill="#FFFFFF" stroke="#FFFFFF" stroke-width="0"/>
		<path d="M213 396 v12 a14 14 90 0 1 -14 14 H169 a14 14 90 0 1 -14 -14 V396 H58" fill="#FFFFFF" stroke="#FFFFFF" stroke-width="0"/>
		<rect x="155" y="370" width="58" height="52" fill="none" rx="14" stroke="#000000" stroke-width="1.5"/>
		<line x1="155" y1="396" x2="213" y2="396" stroke="#000000" stroke-width="1"/>
		<text x="162" y="388.6" fill="#000000" font-family="Trebuchet MS" font-size="14">depart</text>
	</g>
	<text x="189" y="335" fill="#000000" font-family="Verdana" font-size="12">0,N</text>
	<text x="227" y="388" fill="#000000" font-family="Verdana" font-size="12">0,1</text>
</g>

<!-- Association CONCERNE -->
<g>
	<line x1="468" y1="247" x2="468" y2="396" stroke="#000000" stroke-width="1"/>
	<line x1="315" y1="396" x2="468" y2="396" stroke="#000000" stroke-width="1"/>
	<g>
		<path d="M491 370 a14 14 90 0 1 14 14 V396 h-74 V384 a14 14 90 0 1 14 -14" fill="#FFFFFF" stroke="#FFFFFF" stroke-width="0"/>
		<path d="M505 396 v12 a14 14 90 0 1 -14 14 H445 a14 14 90 0 1 -14 -14 V396 H74" fill="#FFFFFF" stroke="#FFFFFF" stroke-width="0"/>
		<rect x="431" y="370" width="74" height="52" fill="none" rx="14" stroke="#000000" stroke-width="1.5"/>
		<line x1="431" y1="396" x2="505" y2="396" stroke="#000000" stroke-width="1"/>
		<text x="438" y="388.6" fill="#000000" font-family="Trebuchet MS" font-size="14">concerne</text>
	</g>
	<text x="473" y="353" fill="#000000" font-family="Verdana" font-size="12">0,N</text>
	<text x="382" y="413" fill="#000000" font-family="Verdana" font-size="12">1,1</text>
</g>

<!-- Association RATTACHE -->
<g>
	<line x1="49" y1="396" x2="184" y2="500" stroke="#000000" stroke-width="1"/>
	<line x1="315" y1="396" x2="184" y2="500" stroke="#000000" stroke-width="1"/>
	<g>
		<path d="M205 474 a14 14 90 0 1 14 14 V500 h-70 V488 a14 14 90 0 1 14 -14" fill="#FFFFFF" stroke="#FFFFFF" stroke-width="0"/>
		<path d="M219 500 v12 a14 14 90 0 1 -14 14 H163 a14 14 90 0 1 -14 -14 V500 H70" fill="#FFFFFF" stroke="#FFFFFF" stroke-width="0"/>
		<rect x="149" y="474" width="70" height="52" fill="none" rx="14" stroke="#000000" stroke-width="1.5"/>
		<line x1="149" y1="500" x2="219" y2="500" stroke="#000000" stroke-width="1"/>
		<text x="156" y="492.6" fill="#000000" font-family="Trebuchet MS" font-size="14">rattache</text>
	</g>
	<text x="94" y="424.6" fill="#000000" font-family="Verdana" font-size="12">0,N</text>
	<text x="227" y="443.15" fill="#000000" font-family="Verdana" font-size="12">1,1</text>
</g>

<!-- Association EFFECTUE -->
<g>
	<line x1="468" y1="500" x2="315" y2="500" stroke="#000000" stroke-width="1"/>
	<line x1="315" y1="396" x2="315" y2="500" stroke="#000000" stroke-width="1"/>
	<g>
		<path d="M336 474 a14 14 90 0 1 14 14 V500 h-70 V488 a14 14 90 0 1 14 -14" fill="#FFFFFF" stroke="#FFFFFF" stroke-width="0"/>
		<path d="M350 500 v12 a14 14 90 0 1 -14 14 H294 a14 14 90 0 1 -14 -14 V500 H70" fill="#FFFFFF" stroke="#FFFFFF" stroke-width="0"/>
		<rect x="280" y="474" width="70" height="52" fill="none" rx="14" stroke="#000000" stroke-width="1.5"/>
		<line x1="280" y1="500" x2="350" y2="500" stroke="#000000" stroke-width="1"/>
		<text x="287" y="492.6" fill="#000000" font-family="Trebuchet MS" font-size="14">effectue</text>
	</g>
	<text x="394" y="517" fill="#000000" font-family="Verdana" font-size="12">0,N</text>
	<text x="320" y="466" fill="#000000" font-family="Verdana" font-size="12">1,1</text>
</g>

<!-- Entity STOCK -->
<g>
	<g>
		<rect x="241" y="9" width="148" height="26" fill="#FFFFFF" stroke="none" stroke-width="0" opacity="1"/>
		<rect x="241" y="35" width="148" height="98" fill="#FFFFFF" stroke="none" stroke-width="0" opacity="1"/>
		<rect x="241" y="9" width="148" height="124" fill="none" stroke="#000000" stroke-width="1.5" opacity="1"/>
		<line x1="241" y1="35" x2="389" y2="35" stroke="#000000" stroke-width="1"/>
	</g>
	<text x="294" y="27.6" fill="#000000" font-family="Trebuchet MS" font-size="14">STOCK</text>
	<text x="246" y="53.6" fill="#000000" font-family="Trebuchet MS" font-size="14">CODE_CLIENT</text>
	<line x1="246" y1="56" x2="334" y2="56" stroke="#000000" stroke-width="1"/>
	<text x="246" y="71.6" fill="#000000" font-family="Trebuchet MS" font-size="14">REFERENCE</text>
	<line x1="246" y1="74" x2="320" y2="74" stroke="#000000" stroke-width="1"/>
	<text x="246" y="89.6" fill="#000000" font-family="Trebuchet MS" font-size="14">CODE_EMPLACEMENT</text>
	<line x1="246" y1="92" x2="383" y2="92" stroke="#000000" stroke-width="1"/>
	<text x="246" y="107.6" fill="#000000" font-family="Trebuchet MS" font-size="14">quantite</text>
	<text x="246" y="125.6" fill="#000000" font-family="Trebuchet MS" font-size="14">date_maj</text>
</g>

<!-- Entity EMPLACEMENT -->
<g>
	<g>
		<rect x="116" y="176" width="136" height="26" fill="#FFFFFF" stroke="none" stroke-width="0" opacity="1"/>
		<rect x="116" y="202" width="136" height="116" fill="#FFFFFF" stroke="none" stroke-width="0" opacity="1"/>
		<rect x="116" y="176" width="136" height="142" fill="none" stroke="#000000" stroke-width="1.5" opacity="1"/>
		<line x1="116" y1="202" x2="252" y2="202" stroke="#000000" stroke-width="1"/>
	</g>
	<text x="137" y="194.6" fill="#000000" font-family="Trebuchet MS" font-size="14">EMPLACEMENT</text>
	<text x="121" y="220.6" fill="#000000" font-family="Trebuchet MS" font-size="14">CODE</text>
	<line x1="121" y1="223" x2="157" y2="223" stroke="#000000" stroke-width="1"/>
	<text x="121" y="238.6" fill="#000000" font-family="Trebuchet MS" font-size="14">zone</text>
	<text x="121" y="256.6" fill="#000000" font-family="Trebuchet MS" font-size="14">allee</text>
	<text x="121" y="274.6" fill="#000000" font-family="Trebuchet MS" font-size="14">etagere</text>
	<text x="121" y="292.6" fill="#000000" font-family="Trebuchet MS" font-size="14">niveau</text>
	<text x="121" y="310.6" fill="#000000" font-family="Trebuchet MS" font-size="14">type_emplacement</text>
</g>

<!-- Entity ARTICLE -->
<g>
	<g>
		<rect x="419" y="158" width="98" height="26" fill="#FFFFFF" stroke="none" stroke-width="0" opacity="1"/>
		<rect x="419" y="184" width="98" height="152" fill="#FFFFFF" stroke="none" stroke-width="0" opacity="1"/>
		<rect x="419" y="158" width="98" height="178" fill="none" stroke="#000000" stroke-width="1.5" opacity="1"/>
		<line x1="419" y1="184" x2="517" y2="184" stroke="#000000" stroke-width="1"/>
	</g>
	<text x="441" y="176.6" fill="#000000" font-family="Trebuchet MS" font-size="14">ARTICLE</text>
	<text x="424" y="202.6" fill="#000000" font-family="Trebuchet MS" font-size="14">CODE_CLIENT</text>
	<line x1="424" y1="205" x2="512" y2="205" stroke="#000000" stroke-width="1"/>
	<text x="424" y="220.6" fill="#000000" font-family="Trebuchet MS" font-size="14">REFERENCE</text>
	<line x1="424" y1="223" x2="498" y2="223" stroke="#000000" stroke-width="1"/>
	<text x="424" y="238.6" fill="#000000" font-family="Trebuchet MS" font-size="14">libelle</text>
	<text x="424" y="256.6" fill="#000000" font-family="Trebuchet MS" font-size="14">poids</text>
	<text x="424" y="274.6" fill="#000000" font-family="Trebuchet MS" font-size="14">longueur</text>
	<text x="424" y="292.6" fill="#000000" font-family="Trebuchet MS" font-size="14">largeur</text>
	<text x="424" y="310.6" fill="#000000" font-family="Trebuchet MS" font-size="14">hauteur</text>
	<text x="424" y="328.6" fill="#000000" font-family="Trebuchet MS" font-size="14">fournisseur</text>
</g>

<!-- Entity CLIENT -->
<g>
	<g>
		<rect x="647" y="167" width="104" height="26" fill="#FFFFFF" stroke="none" stroke-width="0" opacity="1"/>
		<rect x="647" y="193" width="104" height="134" fill="#FFFFFF" stroke="none" stroke-width="0" opacity="1"/>
		<rect x="647" y="167" width="104" height="160" fill="none" stroke="#000000" stroke-width="1.5" opacity="1"/>
		<line x1="647" y1="193" x2="751" y2="193" stroke="#000000" stroke-width="1"/>
	</g>
	<text x="676" y="185.6" fill="#000000" font-family="Trebuchet MS" font-size="14">CLIENT</text>
	<text x="652" y="211.6" fill="#000000" font-family="Trebuchet MS" font-size="14">CODE_CLIENT</text>
	<line x1="652" y1="214" x2="740" y2="214" stroke="#000000" stroke-width="1"/>
	<text x="652" y="229.6" fill="#000000" font-family="Trebuchet MS" font-size="14">raison_sociale</text>
	<text x="652" y="247.6" fill="#000000" font-family="Trebuchet MS" font-size="14">siret</text>
	<text x="652" y="265.6" fill="#000000" font-family="Trebuchet MS" font-size="14">contact_nom</text>
	<text x="652" y="283.6" fill="#000000" font-family="Trebuchet MS" font-size="14">contact_email</text>
	<text x="652" y="301.6" fill="#000000" font-family="Trebuchet MS" font-size="14">adresse</text>
	<text x="652" y="319.6" fill="#000000" font-family="Trebuchet MS" font-size="14">status</text>
</g>

<!-- Entity SITE -->
<g>
	<g>
		<rect x="9" y="352" width="80" height="26" fill="#FFFFFF" stroke="none" stroke-width="0" opacity="1"/>
		<rect x="9" y="378" width="80" height="62" fill="#FFFFFF" stroke="none" stroke-width="0" opacity="1"/>
		<rect x="9" y="352" width="80" height="88" fill="none" stroke="#000000" stroke-width="1.5" opacity="1"/>
		<line x1="9" y1="378" x2="89" y2="378" stroke="#000000" stroke-width="1"/>
	</g>
	<text x="35" y="370.6" fill="#000000" font-family="Trebuchet MS" font-size="14">SITE</text>
	<text x="14" y="396.6" fill="#000000" font-family="Trebuchet MS" font-size="14">CODE_SITE</text>
	<line x1="14" y1="399" x2="84" y2="399" stroke="#000000" stroke-width="1"/>
	<text x="14" y="414.6" fill="#000000" font-family="Trebuchet MS" font-size="14">nom</text>
	<text x="14" y="432.6" fill="#000000" font-family="Trebuchet MS" font-size="14">adresse</text>
</g>

<!-- Entity MOUVEMENT -->
<g>
	<g>
		<rect x="253" y="343" width="124" height="26" fill="#FFFFFF" stroke="none" stroke-width="0" opacity="1"/>
		<rect x="253" y="369" width="124" height="80" fill="#FFFFFF" stroke="none" stroke-width="0" opacity="1"/>
		<rect x="253" y="343" width="124" height="106" fill="none" stroke="#000000" stroke-width="1.5" opacity="1"/>
		<line x1="253" y1="369" x2="377" y2="369" stroke="#000000" stroke-width="1"/>
	</g>
	<text x="274" y="361.6" fill="#000000" font-family="Trebuchet MS" font-size="14">MOUVEMENT</text>
	<text x="258" y="387.6" fill="#000000" font-family="Trebuchet MS" font-size="14">NUMERO_MVT</text>
	<line x1="258" y1="390" x2="348" y2="390" stroke="#000000" stroke-width="1"/>
	<text x="258" y="405.6" fill="#000000" font-family="Trebuchet MS" font-size="14">type_mouvement</text>
	<text x="258" y="423.6" fill="#000000" font-family="Trebuchet MS" font-size="14">quantite</text>
	<text x="258" y="441.6" fill="#000000" font-family="Trebuchet MS" font-size="14">date_mouvement</text>
</g>

<!-- Entity UTILISATEUR -->
<g>
	<g>
		<rect x="421" y="447" width="94" height="26" fill="#FFFFFF" stroke="none" stroke-width="0" opacity="1"/>
		<rect x="421" y="473" width="94" height="80" fill="#FFFFFF" stroke="none" stroke-width="0" opacity="1"/>
		<rect x="421" y="447" width="94" height="106" fill="none" stroke="#000000" stroke-width="1.5" opacity="1"/>
		<line x1="421" y1="473" x2="515" y2="473" stroke="#000000" stroke-width="1"/>
	</g>
	<text x="427" y="465.6" fill="#000000" font-family="Trebuchet MS" font-size="14">UTILISATEUR</text>
	<text x="426" y="491.6" fill="#000000" font-family="Trebuchet MS" font-size="14">LOGIN</text>
	<line x1="426" y1="494" x2="467" y2="494" stroke="#000000" stroke-width="1"/>
	<text x="426" y="509.6" fill="#000000" font-family="Trebuchet MS" font-size="14">nom</text>
	<text x="426" y="527.6" fill="#000000" font-family="Trebuchet MS" font-size="14">prenom</text>
	<text x="426" y="545.6" fill="#000000" font-family="Trebuchet MS" font-size="14">role</text>
</g>
</svg>