<?xml version="1.0" encoding="utf-8"?>
<!-- Generated by Mocodo 4.3.3 -->
<svg width="498" height="753" viewBox="0 0 498 753" xmlns="http://www.w3.org/2000/svg">
<rect x="0" y="0" width="498" height="753" fill="#FFFFFF" stroke="none" stroke-width="0"/>

<!-- Association POSSEDE -->
<g>
	<line x1="61" y1="98" x2="178" y2="98" stroke="#000000" stroke-width="1"/>
	<line x1="309" y1="98" x2="178" y2="98" stroke="#000000" stroke-width="1"/>
	<g>
		<path d="M197 72 a14 14 90 0 1 14 14 V98 h-66 V86 a14 14 90 0 1 14 -14" fill="#FFFFFF" stroke="#FFFFFF" stroke-width="0"/>
		<path d="M211 98 v12 a14 14 90 0 1 -14 14 H159 a14 14 90 0 1 -14 -14 V98 H66" fill="#FFFFFF" stroke="#FFFFFF" stroke-width="0"/>
		<rect x="145" y="72" width="66" height="52" fill="none" rx="14" stroke="#000000" stroke-width="1.5"/>
		<line x1="145" y1="98" x2="211" y2="98" stroke="#000000" stroke-width="1"/>
		<text x="152" y="90.6" fill="#000000" font-family="Trebuchet MS" font-size="14">possede</text>
	</g>
	<text x="118" y="115" fill="#000000" font-family="Verdana" font-size="12">0,N</text>
	<text x="234" y="90" fill="#000000" font-family="Verdana" font-size="12">1,1</text>
</g>

<!-- Association CONCERNE -->
<g>
	<line x1="309" y1="98" x2="427" y2="98" stroke="#000000" stroke-width="1"/>
	<line x1="427" y1="265" x2="427" y2="98" stroke="#000000" stroke-width="1"/>
	<g>
		<path d="M450 72 a14 14 90 0 1 14 14 V98 h-74 V86 a14 14 90 0 1 14 -14" fill="#FFFFFF" stroke="#FFFFFF" stroke-width="0"/>
		<path d="M464 98 v12 a14 14 90 0 1 -14 14 H404 a14 14 90 0 1 -14 -14 V98 H74" fill="#FFFFFF" stroke="#FFFFFF" stroke-width="0"/>
		<rect x="390" y="72" width="74" height="52" fill="none" rx="14" stroke="#000000" stroke-width="1.5"/>
		<line x1="390" y1="98" x2="464" y2="98" stroke="#000000" stroke-width="1"/>
		<text x="397" y="90.6" fill="#000000" font-family="Trebuchet MS" font-size="14">concerne</text>
	</g>
	<text x="363" y="115" fill="#000000" font-family="Verdana" font-size="12">0,N</text>
	<text x="432" y="204" fill="#000000" font-family="Verdana" font-size="12">1,1</text>
</g>

<!-- Association STOCKAGE -->
<g>
	<line x1="309" y1="98" x2="61" y2="265" stroke="#000000" stroke-width="1"/>
	<line x1="178" y1="369" x2="61" y2="265" stroke="#000000" stroke-width="1"/>
	<line x1="178" y1="509" x2="61" y2="265" stroke="#000000" stroke-width="1"/>
	<g>
		<path d="M83 239 a14 14 90 0 1 14 14 V265 h-72 V253 a14 14 90 0 1 14 -14" fill="#FFFFFF" stroke="#FFFFFF" stroke-width="0"/>
		<path d="M97 265 v12 a14 14 90 0 1 -14 14 H39 a14 14 90 0 1 -14 -14 V265 H72" fill="#FFFFFF" stroke="#FFFFFF" stroke-width="0"/>
		<rect x="25" y="239" width="72" height="52" fill="none" rx="14" stroke="#000000" stroke-width="1.5"/>
		<line x1="25" y1="265" x2="97" y2="265" stroke="#000000" stroke-width="1"/>
		<text x="33" y="257.6" fill="#000000" font-family="Trebuchet MS" font-size="14">stockage</text>
	</g>
	<text x="233" y="128.15" fill="#000000" font-family="Verdana" font-size="12">0,N</text>
	<text x="115" y="346.63" fill="#000000" font-family="Verdana" font-size="12">1,1</text>
	<text x="145.2" y="430" fill="#000000" font-family="Verdana" font-size="12">0,N</text>
</g>

<!-- Association DEPART -->
<g>
	<line x1="178" y1="509" x2="309" y2="369" stroke="#000000" stroke-width="1"/>
	<line x1="427" y1="265" x2="309" y2="369" stroke="#000000" stroke-width="1"/>
	<g>
		<path d="M324 343 a14 14 90 0 1 14 14 V369 h-58 V357 a14 14 90 0 1 14 -14" fill="#FFFFFF" stroke="#FFFFFF" stroke-width="0"/>
		<path d="M338 369 v12 a14 14 90 0 1 -14 14 H294 a14 14 90 0 1 -14 -14 V369 H58" fill="#FFFFFF" stroke="#FFFFFF" stroke-width="0"/>
		<rect x="280" y="343" width="58" height="52" fill="none" rx="14" stroke="#000000" stroke-width="1.5"/>
		<line x1="280" y1="369" x2="338" y2="369" stroke="#000000" stroke-width="1"/>
		<text x="287" y="361.6" fill="#000000" font-family="Trebuchet MS" font-size="14">depart</text>
	</g>
	<text x="224.17" y="430" fill="#000000" font-family="Verdana" font-size="12">0,N</text>
	<text x="365.42" y="335" fill="#000000" font-family="Verdana" font-size="12">0,1</text>
</g>

<!-- Association EFFECTUE -->
<g>
	<line x1="427" y1="509" x2="427" y2="369" stroke="#000000" stroke-width="1"/>
	<line x1="427" y1="265" x2="427" y2="369" stroke="#000000" stroke-width="1"/>
	<g>
		<path d="M448 343 a14 14 90 0 1 14 14 V369 h-70 V357 a14 14 90 0 1 14 -14" fill="#FFFFFF" stroke="#FFFFFF" stroke-width="0"/>
		<path d="M462 369 v12 a14 14 90 0 1 -14 14 H406 a14 14 90 0 1 -14 -14 V369 H70" fill="#FFFFFF" stroke="#FFFFFF" stroke-width="0"/>
		<rect x="392" y="343" width="70" height="52" fill="none" rx="14" stroke="#000000" stroke-width="1.5"/>
		<line x1="392" y1="369" x2="462" y2="369" stroke="#000000" stroke-width="1"/>
		<text x="399" y="361.6" fill="#000000" font-family="Trebuchet MS" font-size="14">effectue</text>
	</g>
	<text x="432" y="448" fill="#000000" font-family="Verdana" font-size="12">0,N</text>
	<text x="432" y="335" fill="#000000" font-family="Verdana" font-size="12">1,1</text>
</g>

<!-- Association ARRIVEE -->
<g>
	<line x1="178" y1="509" x2="309" y2="509" stroke="#000000" stroke-width="1"/>
	<line x1="427" y1="265" x2="309" y2="509" stroke="#000000" stroke-width="1"/>
	<g>
		<path d="M326 483 a14 14 90 0 1 14 14 V509 h-62 V497 a14 14 90 0 1 14 -14" fill="#FFFFFF" stroke="#FFFFFF" stroke-width="0"/>
		<path d="M340 509 v12 a14 14 90 0 1 -14 14 H292 a14 14 90 0 1 -14 -14 V509 H62" fill="#FFFFFF" stroke="#FFFFFF" stroke-width="0"/>
		<rect x="278" y="483" width="62" height="52" fill="none" rx="14" stroke="#000000" stroke-width="1.5"/>
		<line x1="278" y1="509" x2="340" y2="509" stroke="#000000" stroke-width="1"/>
		<text x="286" y="501.6" fill="#000000" font-family="Trebuchet MS" font-size="14">arrivee</text>
	</g>
	<text x="251" y="526" fill="#000000" font-family="Verdana" font-size="12">0,N</text>
	<text x="402.59" y="335" fill="#000000" font-family="Verdana" font-size="12">0,1</text>
</g>

<!-- Association CONTIENT -->
<g>
	<line x1="309" y1="700" x2="178" y2="631" stroke="#000000" stroke-width="1"/>
	<line x1="178" y1="509" x2="178" y2="631" stroke="#000000" stroke-width="1"/>
	<g>
		<path d="M199 605 a14 14 90 0 1 14 14 V631 h-70 V619 a14 14 90 0 1 14 -14" fill="#FFFFFF" stroke="#FFFFFF" stroke-width="0"/>
		<path d="M213 631 v12 a14 14 90 0 1 -14 14 H157 a14 14 90 0 1 -14 -14 V631 H70" fill="#FFFFFF" stroke="#FFFFFF" stroke-width="0"/>
		<rect x="143" y="605" width="70" height="52" fill="none" rx="14" stroke="#000000" stroke-width="1.5"/>
		<line x1="143" y1="631" x2="213" y2="631" stroke="#000000" stroke-width="1"/>
		<text x="151" y="623.6" fill="#000000" font-family="Trebuchet MS" font-size="14">contient</text>
	</g>
	<text x="242" y="691.82" fill="#000000" font-family="Verdana" font-size="12">1,N</text>
	<text x="183" y="597" fill="#000000" font-family="Verdana" font-size="12">1,1</text>
</g>

<!-- Entity CLIENT -->
<g>
	<g>
		<rect x="9" y="18" width="104" height="26" fill="#FFFFFF" stroke="none" stroke-width="0" opacity="1"/>
		<rect x="9" y="44" width="104" height="134" fill="#FFFFFF" stroke="none" stroke-width="0" opacity="1"/>
		<rect x="9" y="18" width="104" height="160" fill="none" stroke="#000000" stroke-width="1.5" opacity="1"/>
		<line x1="9" y1="44" x2="113" y2="44" stroke="#000000" stroke-width="1"/>
	</g>
	<text x="38" y="36.6" fill="#000000" font-family="Trebuchet MS" font-size="14">CLIENT</text>
	<text x="14" y="62.6" fill="#000000" font-family="Trebuchet MS" font-size="14">CODE_CLIENT</text>
	<line x1="14" y1="65" x2="102" y2="65" stroke="#000000" stroke-width="1"/>
	<text x="14" y="80.6" fill="#000000" font-family="Trebuchet MS" font-size="14">raison_sociale</text>
	<text x="14" y="98.6" fill="#000000" font-family="Trebuchet MS" font-size="14">siret</text>
	<text x="14" y="116.6" fill="#000000" font-family="Trebuchet MS" font-size="14">contact_nom</text>
	<text x="14" y="134.6" fill="#000000" font-family="Trebuchet MS" font-size="14">contact_email</text>
	<text x="14" y="152.6" fill="#000000" font-family="Trebuchet MS" font-size="14">adresse</text>
	<text x="14" y="170.6" fill="#000000" font-family="Trebuchet MS" font-size="14">status</text>
</g>

<!-- Entity ARTICLE -->
<g>
	<g>
		<rect x="260" y="9" width="98" height="26" fill="#FFFFFF" stroke="none" stroke-width="0" opacity="1"/>
		<rect x="260" y="35" width="98" height="152" fill="#FFFFFF" stroke="none" stroke-width="0" opacity="1"/>
		<rect x="260" y="9" width="98" height="178" fill="none" stroke="#000000" stroke-width="1.5" opacity="1"/>
		<line x1="260" y1="35" x2="358" y2="35" stroke="#000000" stroke-width="1"/>
	</g>
	<text x="282" y="27.6" fill="#000000" font-family="Trebuchet MS" font-size="14">ARTICLE</text>
	<text x="265" y="53.6" fill="#000000" font-family="Trebuchet MS" font-size="14">CODE_CLIENT</text>
	<line x1="265" y1="56" x2="353" y2="56" stroke="#000000" stroke-width="1"/>
	<text x="265" y="71.6" fill="#000000" font-family="Trebuchet MS" font-size="14">REFERENCE</text>
	<text x="265" y="89.6" fill="#000000" font-family="Trebuchet MS" font-size="14">libelle</text>
	<text x="265" y="107.6" fill="#000000" font-family="Trebuchet MS" font-size="14">poids</text>
	<text x="265" y="125.6" fill="#000000" font-family="Trebuchet MS" font-size="14">longueur</text>
	<text x="265" y="143.6" fill="#000000" font-family="Trebuchet MS" font-size="14">largeur</text>
	<text x="265" y="161.6" fill="#000000" font-family="Trebuchet MS" font-size="14">hauteur</text>
	<text x="265" y="179.6" fill="#000000" font-family="Trebuchet MS" font-size="14">fournisseur</text>
</g>

<!-- Entity MOUVEMENT -->
<g>
	<g>
		<rect x="365" y="212" width="124" height="26" fill="#FFFFFF" stroke="none" stroke-width="0" opacity="1"/>
		<rect x="365" y="238" width="124" height="80" fill="#FFFFFF" stroke="none" stroke-width="0" opacity="1"/>
		<rect x="365" y="212" width="124" height="106" fill="none" stroke="#000000" stroke-width="1.5" opacity="1"/>
		<line x1="365" y1="238" x2="489" y2="238" stroke="#000000" stroke-width="1"/>
	</g>
	<text x="386" y="230.6" fill="#000000" font-family="Trebuchet MS" font-size="14">MOUVEMENT</text>
	<text x="370" y="256.6" fill="#000000" font-family="Trebuchet MS" font-size="14">NUMERO_MVT</text>
	<line x1="370" y1="259" x2="460" y2="259" stroke="#000000" stroke-width="1"/>
	<text x="370" y="274.6" fill="#000000" font-family="Trebuchet MS" font-size="14">type_mouvement</text>
	<text x="370" y="292.6" fill="#000000" font-family="Trebuchet MS" font-size="14">quantite</text>
	<text x="370" y="310.6" fill="#000000" font-family="Trebuchet MS" font-size="14">date_mouvement</text>
</g>

<!-- Entity STOCK -->
<g>
	<g>
		<rect x="141" y="325" width="74" height="26" fill="#FFFFFF" stroke="none" stroke-width="0" opacity="1"/>
		<rect x="141" y="351" width="74" height="62" fill="#FFFFFF" stroke="none" stroke-width="0" opacity="1"/>
		<rect x="141" y="325" width="74" height="88" fill="none" stroke="#000000" stroke-width="1.5" opacity="1"/>
		<line x1="141" y1="351" x2="215" y2="351" stroke="#000000" stroke-width="1"/>
	</g>
	<text x="157" y="343.6" fill="#000000" font-family="Trebuchet MS" font-size="14">STOCK</text>
	<text x="146" y="369.6" fill="#000000" font-family="Trebuchet MS" font-size="14">ID_STOCK</text>
	<line x1="146" y1="372" x2="209" y2="372" stroke="#000000" stroke-width="1"/>
	<text x="146" y="387.6" fill="#000000" font-family="Trebuchet MS" font-size="14">quantite</text>
	<text x="146" y="405.6" fill="#000000" font-family="Trebuchet MS" font-size="14">date_maj</text>
</g>

<!-- Entity EMPLACEMENT -->
<g>
	<g>
		<rect x="110" y="438" width="136" height="26" fill="#FFFFFF" stroke="none" stroke-width="0" opacity="1"/>
		<rect x="110" y="464" width="136" height="116" fill="#FFFFFF" stroke="none" stroke-width="0" opacity="1"/>
		<rect x="110" y="438" width="136" height="142" fill="none" stroke="#000000" stroke-width="1.5" opacity="1"/>
		<line x1="110" y1="464" x2="246" y2="464" stroke="#000000" stroke-width="1"/>
	</g>
	<text x="131" y="456.6" fill="#000000" font-family="Trebuchet MS" font-size="14">EMPLACEMENT</text>
	<text x="115" y="482.6" fill="#000000" font-family="Trebuchet MS" font-size="14">CODE</text>
	<line x1="115" y1="485" x2="151" y2="485" stroke="#000000" stroke-width="1"/>
	<text x="115" y="500.6" fill="#000000" font-family="Trebuchet MS" font-size="14">zone</text>
	<text x="115" y="518.6" fill="#000000" font-family="Trebuchet MS" font-size="14">allee</text>
	<text x="115" y="536.6" fill="#000000" font-family="Trebuchet MS" font-size="14">etagere</text>
	<text x="115" y="554.6" fill="#000000" font-family="Trebuchet MS" font-size="14">niveau</text>
	<text x="115" y="572.6" fill="#000000" font-family="Trebuchet MS" font-size="14">type_emplacement</text>
</g>

<!-- Entity UTILISATEUR -->
<g>
	<g>
		<rect x="380" y="456" width="94" height="26" fill="#FFFFFF" stroke="none" stroke-width="0" opacity="1"/>
		<rect x="380" y="482" width="94" height="80" fill="#FFFFFF" stroke="none" stroke-width="0" opacity="1"/>
		<rect x="380" y="456" width="94" height="106" fill="none" stroke="#000000" stroke-width="1.5" opacity="1"/>
		<line x1="380" y1="482" x2="474" y2="482" stroke="#000000" stroke-width="1"/>
	</g>
	<text x="386" y="474.6" fill="#000000" font-family="Trebuchet MS" font-size="14">UTILISATEUR</text>
	<text x="385" y="500.6" fill="#000000" font-family="Trebuchet MS" font-size="14">LOGIN</text>
	<line x1="385" y1="503" x2="426" y2="503" stroke="#000000" stroke-width="1"/>
	<text x="385" y="518.6" fill="#000000" font-family="Trebuchet MS" font-size="14">nom</text>
	<text x="385" y="536.6" fill="#000000" font-family="Trebuchet MS" font-size="14">prenom</text>
	<text x="385" y="554.6" fill="#000000" font-family="Trebuchet MS" font-size="14">role</text>
</g>

<!-- Entity SITE -->
<g>
	<g>
		<rect x="269" y="656" width="80" height="26" fill="#FFFFFF" stroke="none" stroke-width="0" opacity="1"/>
		<rect x="269" y="682" width="80" height="62" fill="#FFFFFF" stroke="none" stroke-width="0" opacity="1"/>
		<rect x="269" y="656" width="80" height="88" fill="none" stroke="#000000" stroke-width="1.5" opacity="1"/>
		<line x1="269" y1="682" x2="349" y2="682" stroke="#000000" stroke-width="1"/>
	</g>
	<text x="295" y="674.6" fill="#000000" font-family="Trebuchet MS" font-size="14">SITE</text>
	<text x="274" y="700.6" fill="#000000" font-family="Trebuchet MS" font-size="14">CODE_SITE</text>
	<line x1="274" y1="703" x2="344" y2="703" stroke="#000000" stroke-width="1"/>
	<text x="274" y="718.6" fill="#000000" font-family="Trebuchet MS" font-size="14">nom</text>
	<text x="274" y="736.6" fill="#000000" font-family="Trebuchet MS" font-size="14">adresse</text>
</g>
</svg>